<?xml version="1.0" encoding="utf-8"?>
<!-- Generator: Adobe Illustrator 28.2.0, SVG Export Plug-In . SVG Version: 6.00 Build 0)  -->
<svg version="1.1" xmlns="http://www.w3.org/2000/svg" xmlns:xlink="http://www.w3.org/1999/xlink" x="0px" y="0px"
	 viewBox="0 0 720 720" style="enable-background:new 0 0 720 720;" xml:space="preserve">
<style type="text/css">
	.st0{fill:#15294C;}
	.st1{fill:#B53E1C;}
</style>
<g id="Layer_1">
</g>
<g id="Layer_2">
	<g>
		<g>
			<g>
				<path class="st0" d="M344.3,375.6c0,1.1,0,2.2,0,3.3c0,7.2,0.1,14.3,0.1,21.5c0,0.8,0,1.6,0,2.5c-0.3,2.9-2.1,4.7-4.7,4.6
					c-2.6-0.1-4.4-1.9-4.4-4.9c0-12.6-0.1-25.2,0.1-37.8c0-1.7,1.5-3.9,2.9-4.8c2.3-1.5,4.5,0,6.2,1.9c8.7,9.3,17.4,18.5,26,27.8
					c0.7,0.7,1,1.8,1.5,2.7c0.4-0.3,0.8-0.6,1.3-0.8c0.1-1.1,0.2-2.1,0.2-3.2c0-7.6,0-15.2,0-22.7c0-4,1.5-6.1,4.4-6.1
					c3,0,4.6,2.1,4.6,5.9c0,12,0,24,0,36c0,2.5-0.4,4.8-3.1,5.8c-2.6,1-4.6-0.2-6.3-2c-8.5-9.1-17-18.3-25.5-27.4
					c-0.8-0.8-1.3-1.9-1.9-2.8C345.2,375,344.7,375.3,344.3,375.6z"/>
				<path class="st0" d="M207.2,383.3c0-6,0-12.1,0-18.1c0-4.3,1.3-5.6,5.5-5.6c6.2,0,12.5,0,18.7,0.1c13.8,0.3,23.6,10.2,23.6,23.8
					c0,12.8-10,22.9-23.3,23.3c-6.3,0.2-12.7,0.2-19,0.1c-4.3,0-5.5-1.3-5.5-5.5C207.1,395.4,207.1,389.4,207.2,383.3
					C207.1,383.3,207.1,383.3,207.2,383.3z M225.5,368.4C225.5,368.4,225.5,368.4,225.5,368.4c-2.2-0.1-4.5,0-6.7-0.1
					c-2-0.1-2.7,0.7-2.6,2.7c0.1,8.2,0.1,16.4,0.1,24.5c0,2,0.7,2.7,2.7,2.7c4.3-0.1,8.6,0.1,12.9-0.1c8.3-0.2,14.2-6.5,14.3-14.9
					c0.1-8.1-6-14.5-14.1-14.8C229.8,368.4,227.7,368.4,225.5,368.4z"/>
				<path class="st0" d="M403.3,383.3c0-6.1,0-12.3,0-18.4c0-3.9,1.3-5.2,5.1-5.3c6.4,0,12.9-0.1,19.3,0.1
					c10.8,0.3,19.9,7.3,22.6,17.1c2.8,10.3-1.1,20.6-9.8,26.3c-4,2.6-8.4,3.7-13.1,3.8c-6.3,0.1-12.7,0.1-19,0
					c-3.7,0-5.1-1.4-5.1-5.3C403.2,395.6,403.2,389.4,403.3,383.3C403.3,383.3,403.3,383.3,403.3,383.3z M412.1,383.3
					C412.2,383.3,412.2,383.3,412.1,383.3c0.1,4,0.1,8,0,12c-0.1,2,0.4,3,2.7,2.9c4.4-0.2,8.8,0.1,13.2-0.1
					c8.1-0.2,14-6.3,14.1-14.4c0.1-8.4-5.7-14.9-13.9-15.3c-4.5-0.2-9,0-13.5-0.1c-2-0.1-2.7,0.7-2.7,2.7
					C412.2,375.1,412.1,379.2,412.1,383.3z"/>
				<path class="st0" d="M542.1,380.6c1.2-0.8,2-1.2,2.7-1.8c7.4-5.8,14.8-11.7,22.2-17.5c0.2-0.2,0.5-0.4,0.7-0.6
					c2.4-1.7,5-1.5,6.6,0.5c1.6,2,1.3,4.3-0.9,6.2c-5.3,4.3-10.8,8.5-16.1,12.8c-0.9,0.7-1.7,1.4-2.9,2.4c2.6,2.3,4.9,4.4,7.3,6.4
					c3.9,3.3,7.8,6.6,11.7,10c2.6,2.2,2.9,4.6,1.2,6.7c-1.7,2-4.3,2.2-6.8,0.1c-6.1-5.2-12-10.5-18.1-15.7c-1-0.8-3-2-3.4-1.6
					c-1.7,1.4-3.7,3.1-4.2,5.1c-0.7,2.6-0.1,5.5-0.2,8.2c0,3.7-1.7,5.7-4.6,5.7c-2.8-0.1-4.3-1.9-4.3-5.5c0-12.3,0-24.6,0-36.9
					c0-3.6,1.5-5.5,4.2-5.7c2.9-0.1,4.7,1.8,4.8,5.5c0.1,4,0,8,0,12C541.9,377.9,542,379,542.1,380.6z"/>
				<path class="st0" d="M294.2,407c-5.2,0-10.4,0-15.7,0c-3.8,0-5.2-1.4-5.3-5.2c-0.1-5.9-0.1-11.9,0-17.8c0-3.3,1.6-5.1,4.8-5.1
					c10.5-0.1,21.1-0.1,31.6,0c2.9,0,4.5,1.7,4.5,4.4c0,2.7-1.6,4.2-4.8,4.3c-8,0-16,0.1-24,0c-2.6,0-3.3,0.8-3.3,3.3
					c0.1,7.4,0.1,7.4,7.5,7.4c7,0,13.9,0,20.9,0.1c3.2,0,5.1,1.8,5,4.5c-0.1,2.6-1.7,4.1-4.7,4.1C305.3,407,299.7,407,294.2,407
					C294.2,407,294.2,407,294.2,407z"/>
				<path class="st0" d="M479.1,398.2c9,0,17.4,0,25.7,0c1.1,0,2.3-0.1,3.4,0c2.7,0.3,4.5,2.1,4.3,4.6c-0.2,2.7-1.8,4-4.5,4
					c-6.6,0-13.1,0-19.7,0c-4.4,0-8.8,0.1-13.2,0c-3.4,0-4.9-1.4-4.9-4.9c-0.1-6-0.1-12.1,0-18.1c0-3.5,1.5-5.1,5.1-5.2
					c10.4-0.1,20.9,0,31.3,0.1c3,0,4.7,1.9,4.6,4.6c-0.1,2.6-1.7,4-4.8,4c-8,0-16,0.1-24-0.1c-2.9-0.1-3.8,0.9-3.5,3.7
					C479.3,393.3,479.1,395.6,479.1,398.2z"/>
				<path class="st0" d="M165.8,407c-5.3,0-10.6,0-16,0c-3.9,0-5.2-1.2-5.2-5.1c-0.1-5.8-0.1-11.7-0.1-17.5c0-3.9,1.5-5.5,5.3-5.6
					c10.2-0.1,20.5,0,30.7,0c3.5,0,5.3,1.7,5.2,4.6c-0.1,2.7-1.7,4-5.4,4.1c-8,0-16,0.1-23.9,0c-2.5,0-3.2,0.8-3.1,3.2
					c0.2,7.6,0.1,7.6,7.6,7.6c7.1,0,14.1,0,21.2,0.1c3.5,0,5.6,2.6,4.9,5.5c-0.7,2.5-2.6,3.2-4.9,3.2C176.6,407,171.2,407,165.8,407
					z"/>
				<path class="st0" d="M294.4,359.6c5.2,0,10.4,0,15.6,0c3.3,0,5.2,1.6,5.2,4.3c0.1,2.7-1.7,4.4-5.1,4.4
					c-10.7,0.1-21.5,0.1-32.2,0c-3.2,0-4.9-1.7-4.9-4.2c0-2.8,1.8-4.4,5.1-4.4C283.6,359.6,289,359.6,294.4,359.6
					C294.4,359.6,294.4,359.6,294.4,359.6z"/>
				<path class="st0" d="M490.9,368.3c-5.2,0-10.4,0-15.6,0c-3.4,0-5.1-1.6-5.1-4.3c0-2.8,1.7-4.3,5.1-4.3
					c10.6-0.1,21.2-0.1,31.9-0.1c3.3,0,5.1,1.7,5.1,4.4c0,2.7-1.7,4.3-5.2,4.3C501.7,368.4,496.3,368.3,490.9,368.3z"/>
				<path class="st0" d="M165.5,359.7c5.3,0,10.6,0,16,0c3.6,0,5.5,1.6,5.5,4.4c0,2.7-1.9,4.3-5.6,4.3c-10.5,0-21.1,0-31.6,0
					c-3.5,0-5.3-1.7-5.2-4.6c0.1-2.8,1.7-4.1,5.3-4.1C155.1,359.7,160.3,359.7,165.5,359.7z"/>
			</g>
		</g>
		<g>
			<g>
				<path class="st1" d="M356,279.9c-6.3,0.5-12.5,1.1-18.8,1.6c-2,0.2-3.4,1.2-4.5,2.9c-3.7,5.7-7.5,11.4-11.2,17.1
					c-1.4,2.1-3.1,3.1-5.6,3c-4.7-0.1-9.4,0-14.1-0.1c-2.1,0-3.4,0.9-4.3,2.8c-2.8,6.6-5.8,13.2-8.7,19.8c-1.2,2.8-1,3.6,1.5,5.4
					c4.4,3.2,8.9,6.5,13.3,9.7c2.6,1.9,3.9,1.5,5.2-1.4c3.8-8.7,7.7-17.3,11.3-26c1.2-2.8,2.7-4.1,5.8-3.9c4,0.2,8.1,0,12.1,0.1
					c2.1,0,3.6-0.8,4.8-2.6c5.3-8.1,10.6-16.2,15.9-24.3c0.3-0.4,0.5-0.8,0.7-1.2c1-1.9,0.4-3.1-1.8-3.1
					C357.1,279.8,356.5,279.9,356,279.9C356,279.9,356,279.9,356,279.9z"/>
				<path class="st1" d="M364,279.9c6.3,0.5,12.5,1.1,18.8,1.6c2,0.2,3.4,1.2,4.5,2.9c3.7,5.7,7.5,11.4,11.2,17.1
					c1.4,2.1,3.1,3.1,5.6,3c4.7-0.1,9.4,0,14.1-0.1c2.1,0,3.4,0.9,4.3,2.8c2.8,6.6,5.8,13.2,8.7,19.8c1.2,2.8,1,3.6-1.5,5.4
					c-4.4,3.2-8.9,6.5-13.3,9.7c-2.6,1.9-3.9,1.5-5.2-1.4c-3.8-8.7-7.7-17.3-11.3-26c-1.2-2.8-2.7-4.1-5.8-3.9
					c-4,0.2-8.1,0-12.1,0.1c-2.1,0-3.6-0.8-4.8-2.6c-5.3-8.1-10.6-16.2-15.9-24.3c-0.3-0.4-0.5-0.8-0.7-1.2c-1-1.9-0.4-3.1,1.8-3.1
					C362.9,279.8,363.5,279.9,364,279.9C364,279.9,364,279.9,364,279.9z"/>
			</g>
		</g>
		<g>
			<g>
				<path class="st1" d="M208.1,438.1h-4l-0.7,1.9h-2.1l3.6-10.1h2.3l3.6,10.1h-2.1L208.1,438.1z M207.6,436.5l-1.5-4.2l-1.5,4.2
					H207.6z"/>
				<path class="st1" d="M220.3,440l-2.2-3.9h-1v3.9h-2v-10h3.8c0.8,0,1.4,0.1,2,0.4c0.5,0.3,1,0.6,1.2,1.1c0.3,0.5,0.4,1,0.4,1.6
					c0,0.7-0.2,1.3-0.6,1.8c-0.4,0.5-1,0.9-1.7,1.1l2.4,4.1H220.3z M217.1,434.6h1.7c0.5,0,1-0.1,1.2-0.4c0.3-0.3,0.4-0.6,0.4-1.1
					c0-0.5-0.1-0.8-0.4-1.1c-0.3-0.3-0.7-0.4-1.2-0.4h-1.7V434.6z"/>
				<path class="st1" d="M227.4,432.3c0.4-0.8,1.1-1.4,1.8-1.8c0.8-0.4,1.6-0.7,2.6-0.7c1.1,0,2.1,0.3,3,0.9
					c0.8,0.6,1.4,1.4,1.8,2.4h-2.3c-0.2-0.5-0.6-0.8-1-1.1c-0.4-0.2-0.9-0.4-1.4-0.4c-0.6,0-1.1,0.1-1.6,0.4
					c-0.5,0.3-0.8,0.7-1.1,1.2c-0.3,0.5-0.4,1.1-0.4,1.8c0,0.7,0.1,1.2,0.4,1.7c0.3,0.5,0.6,0.9,1.1,1.2c0.5,0.3,1,0.4,1.6,0.4
					c0.5,0,1-0.1,1.4-0.4c0.4-0.2,0.7-0.6,1-1.1h2.3c-0.3,1-0.9,1.8-1.8,2.4c-0.8,0.6-1.8,0.9-3,0.9c-1,0-1.8-0.2-2.6-0.7
					s-1.4-1-1.8-1.8c-0.4-0.8-0.7-1.7-0.7-2.6S227,433.1,227.4,432.3z"/>
				<path class="st1" d="M249.5,429.9v10h-2v-4.3h-4.3v4.3h-2v-10h2v4.1h4.3v-4.1H249.5z"/>
				<path class="st1" d="M256.4,429.9v10h-2v-10H256.4z"/>
				<path class="st1" d="M268.1,429.9v1.6h-2.7v8.4h-2v-8.4h-2.7v-1.6H268.1z"/>
				<path class="st1" d="M274.4,431.6v2.5h3.4v1.6h-3.4v2.7h3.8v1.6h-5.8v-10.1h5.8v1.6H274.4z"/>
				<path class="st1" d="M283.2,432.3c0.4-0.8,1.1-1.4,1.8-1.8c0.8-0.4,1.6-0.7,2.6-0.7c1.1,0,2.1,0.3,3,0.9s1.4,1.4,1.8,2.4H290
					c-0.2-0.5-0.6-0.8-1-1.1c-0.4-0.2-0.9-0.4-1.4-0.4c-0.6,0-1.1,0.1-1.6,0.4c-0.5,0.3-0.8,0.7-1.1,1.2c-0.3,0.5-0.4,1.1-0.4,1.8
					c0,0.7,0.1,1.2,0.4,1.7c0.3,0.5,0.6,0.9,1.1,1.2c0.5,0.3,1,0.4,1.6,0.4c0.5,0,1-0.1,1.4-0.4c0.4-0.2,0.7-0.6,1-1.1h2.3
					c-0.3,1-0.9,1.8-1.8,2.4c-0.8,0.6-1.8,0.9-3,0.9c-1,0-1.8-0.2-2.6-0.7c-0.8-0.4-1.4-1-1.8-1.8c-0.4-0.8-0.7-1.7-0.7-2.6
					S282.7,433.1,283.2,432.3z"/>
				<path class="st1" d="M303.7,429.9v1.6h-2.7v8.4h-2v-8.4h-2.7v-1.6H303.7z"/>
				<path class="st1" d="M322.1,440l-1.1-1.1c-0.9,0.8-2.1,1.3-3.4,1.3c-0.7,0-1.4-0.1-2-0.4c-0.6-0.3-1-0.6-1.3-1.1
					c-0.3-0.5-0.5-1-0.5-1.6c0-0.7,0.2-1.3,0.6-1.8c0.4-0.5,0.9-1,1.7-1.3c-0.3-0.3-0.4-0.6-0.6-0.9c-0.1-0.3-0.2-0.6-0.2-0.9
					c0-0.5,0.1-0.9,0.4-1.2c0.2-0.4,0.6-0.7,1-0.9c0.4-0.2,1-0.3,1.6-0.3c0.6,0,1.1,0.1,1.6,0.3c0.4,0.2,0.8,0.5,1,0.9
					c0.2,0.4,0.3,0.8,0.3,1.3h-2c0-0.3-0.1-0.6-0.2-0.7c-0.2-0.2-0.4-0.3-0.7-0.3c-0.3,0-0.5,0.1-0.7,0.2s-0.3,0.4-0.3,0.6
					c0,0.2,0.1,0.5,0.2,0.7c0.1,0.2,0.4,0.5,0.7,0.9l2.5,2.5c0,0,0,0,0-0.1c0,0,0,0,0-0.1l0.8-1.4h2.1l-1,1.8
					c-0.2,0.4-0.4,0.7-0.6,1.1l2.4,2.4H322.1z M319.8,437.7l-2.5-2.4c-0.9,0.4-1.4,1-1.4,1.8c0,0.4,0.2,0.8,0.5,1.1
					c0.3,0.3,0.8,0.4,1.3,0.4C318.5,438.5,319.2,438.2,319.8,437.7z"/>
				<path class="st1" d="M341.1,430.6c0.8,0.4,1.4,1,1.9,1.8c0.4,0.8,0.7,1.6,0.7,2.7c0,1-0.2,1.9-0.7,2.6c-0.4,0.8-1.1,1.3-1.9,1.7
					c-0.8,0.4-1.7,0.6-2.8,0.6h-3.5v-10h3.5C339.3,429.9,340.3,430.2,341.1,430.6z M340.7,437.4c0.6-0.6,0.9-1.4,0.9-2.4
					c0-1-0.3-1.9-0.9-2.5c-0.6-0.6-1.4-0.9-2.4-0.9h-1.4v6.6h1.4C339.3,438.3,340.1,438,340.7,437.4z"/>
				<path class="st1" d="M350,431.6v2.5h3.4v1.6H350v2.7h3.8v1.6H348v-10.1h5.8v1.6H350z"/>
				<path class="st1" d="M360.1,439.7c-0.6-0.2-1-0.6-1.3-1c-0.3-0.5-0.5-1-0.5-1.6h2.2c0,0.4,0.2,0.7,0.4,1
					c0.3,0.2,0.6,0.4,1.1,0.4c0.5,0,0.8-0.1,1.1-0.3c0.3-0.2,0.4-0.5,0.4-0.9c0-0.3-0.1-0.5-0.3-0.7c-0.2-0.2-0.4-0.3-0.7-0.5
					c-0.3-0.1-0.7-0.2-1.1-0.4c-0.7-0.2-1.2-0.4-1.6-0.6c-0.4-0.2-0.8-0.5-1.1-0.8c-0.3-0.4-0.4-0.9-0.4-1.5c0-0.6,0.1-1.1,0.4-1.6
					c0.3-0.4,0.7-0.8,1.3-1c0.5-0.2,1.2-0.4,1.8-0.4c1,0,1.9,0.3,2.5,0.8c0.6,0.5,1,1.2,1.1,2.1h-2.2c0-0.3-0.2-0.6-0.4-0.9
					c-0.3-0.2-0.6-0.3-1.1-0.3c-0.4,0-0.7,0.1-0.9,0.3c-0.2,0.2-0.4,0.5-0.4,0.9c0,0.3,0.1,0.5,0.3,0.7c0.2,0.2,0.4,0.3,0.7,0.4
					c0.3,0.1,0.6,0.2,1.1,0.4c0.7,0.2,1.2,0.4,1.6,0.6c0.4,0.2,0.8,0.5,1.1,0.9c0.3,0.4,0.4,0.9,0.4,1.5c0,0.5-0.1,1-0.4,1.5
					c-0.3,0.5-0.7,0.8-1.2,1.1c-0.5,0.3-1.2,0.4-1.9,0.4C361.3,440.1,360.7,440,360.1,439.7z"/>
				<path class="st1" d="M372.2,429.9v10h-2v-10H372.2z"/>
				<path class="st1" d="M384,433c-0.2-0.4-0.5-0.7-1-1c-0.4-0.2-0.9-0.3-1.4-0.3c-0.6,0-1.1,0.1-1.6,0.4c-0.5,0.3-0.8,0.7-1.1,1.2
					c-0.3,0.5-0.4,1.1-0.4,1.7c0,0.7,0.1,1.3,0.4,1.8c0.3,0.5,0.6,0.9,1.1,1.2c0.5,0.3,1,0.4,1.6,0.4c0.8,0,1.4-0.2,1.9-0.6
					c0.5-0.4,0.8-1,1-1.7h-3.5v-1.5h5.4v1.8c-0.1,0.7-0.4,1.3-0.9,1.9c-0.4,0.6-1,1.1-1.7,1.4c-0.7,0.4-1.5,0.5-2.3,0.5
					c-1,0-1.8-0.2-2.6-0.7c-0.8-0.4-1.4-1-1.8-1.8c-0.4-0.8-0.7-1.7-0.7-2.6s0.2-1.9,0.7-2.7c0.4-0.8,1.1-1.4,1.8-1.8
					c0.8-0.4,1.7-0.7,2.6-0.7c1.1,0,2.1,0.3,3,0.8c0.8,0.6,1.4,1.3,1.7,2.3H384z"/>
				<path class="st1" d="M399.6,440h-2l-4.6-6.9v6.9h-2v-10.1h2l4.6,6.9v-6.9h2V440z"/>
				<path class="st1" d="M406.5,431.6v2.5h3.4v1.6h-3.4v2.7h3.8v1.6h-5.8v-10.1h5.8v1.6H406.5z"/>
				<path class="st1" d="M420.2,440l-2.2-3.9h-1v3.9h-2v-10h3.8c0.8,0,1.4,0.1,2,0.4c0.5,0.3,1,0.6,1.2,1.1c0.3,0.5,0.4,1,0.4,1.6
					c0,0.7-0.2,1.3-0.6,1.8s-1,0.9-1.7,1.1l2.4,4.1H420.2z M417,434.6h1.7c0.5,0,1-0.1,1.2-0.4s0.4-0.6,0.4-1.1
					c0-0.5-0.1-0.8-0.4-1.1s-0.7-0.4-1.2-0.4H417V434.6z"/>
				<path class="st1" d="M428.3,428.5l-0.2,3.1h-1.4l-0.2-3.1H428.3z"/>
				<path class="st1" d="M434.3,439.7c-0.6-0.2-1-0.6-1.3-1c-0.3-0.5-0.5-1-0.5-1.6h2.2c0,0.4,0.2,0.7,0.4,1
					c0.3,0.2,0.6,0.4,1.1,0.4c0.5,0,0.8-0.1,1.1-0.3c0.3-0.2,0.4-0.5,0.4-0.9c0-0.3-0.1-0.5-0.3-0.7c-0.2-0.2-0.4-0.3-0.7-0.5
					c-0.3-0.1-0.7-0.2-1.1-0.4c-0.7-0.2-1.2-0.4-1.6-0.6c-0.4-0.2-0.8-0.5-1.1-0.8c-0.3-0.4-0.4-0.9-0.4-1.5c0-0.6,0.1-1.1,0.4-1.6
					c0.3-0.4,0.7-0.8,1.3-1c0.5-0.2,1.2-0.4,1.8-0.4c1,0,1.9,0.3,2.5,0.8c0.6,0.5,1,1.2,1.1,2.1h-2.2c0-0.3-0.2-0.6-0.4-0.9
					c-0.3-0.2-0.6-0.3-1.1-0.3c-0.4,0-0.7,0.1-0.9,0.3c-0.2,0.2-0.4,0.5-0.4,0.9c0,0.3,0.1,0.5,0.3,0.7c0.2,0.2,0.4,0.3,0.7,0.4
					c0.3,0.1,0.6,0.2,1.1,0.4c0.7,0.2,1.2,0.4,1.6,0.6c0.4,0.2,0.8,0.5,1.1,0.9c0.3,0.4,0.4,0.9,0.4,1.5c0,0.5-0.1,1-0.4,1.5
					c-0.3,0.5-0.7,0.8-1.2,1.1c-0.5,0.3-1.2,0.4-1.9,0.4C435.5,440.1,434.9,440,434.3,439.7z"/>
				<path class="st1" d="M450.9,432.3c0.4-0.8,1.1-1.4,1.8-1.8c0.8-0.4,1.6-0.7,2.6-0.7c1.1,0,2.1,0.3,3,0.9
					c0.8,0.6,1.4,1.4,1.8,2.4h-2.3c-0.2-0.5-0.6-0.8-1-1.1c-0.4-0.2-0.9-0.4-1.4-0.4c-0.6,0-1.1,0.1-1.6,0.4
					c-0.5,0.3-0.8,0.7-1.1,1.2c-0.3,0.5-0.4,1.1-0.4,1.8c0,0.7,0.1,1.2,0.4,1.7c0.3,0.5,0.6,0.9,1.1,1.2c0.5,0.3,1,0.4,1.6,0.4
					c0.5,0,1-0.1,1.4-0.4c0.4-0.2,0.7-0.6,1-1.1h2.3c-0.3,1-0.9,1.8-1.8,2.4c-0.8,0.6-1.8,0.9-3,0.9c-1,0-1.8-0.2-2.6-0.7
					c-0.8-0.4-1.4-1-1.8-1.8c-0.4-0.8-0.7-1.7-0.7-2.6S450.5,433.1,450.9,432.3z"/>
				<path class="st1" d="M473,429.9v10h-2v-4.3h-4.3v4.3h-2v-10h2v4.1h4.3v-4.1H473z"/>
				<path class="st1" d="M479.9,439.4c-0.8-0.4-1.4-1.1-1.9-1.8c-0.5-0.8-0.7-1.7-0.7-2.7c0-1,0.2-1.9,0.7-2.6
					c0.5-0.8,1.1-1.4,1.9-1.8c0.8-0.4,1.7-0.7,2.6-0.7c1,0,1.8,0.2,2.6,0.7c0.8,0.4,1.4,1.1,1.9,1.8c0.5,0.8,0.7,1.7,0.7,2.6
					c0,1-0.2,1.9-0.7,2.7c-0.5,0.8-1.1,1.4-1.9,1.8c-0.8,0.4-1.7,0.7-2.6,0.7S480.7,439.9,479.9,439.4z M484.1,437.9
					c0.5-0.3,0.8-0.7,1.1-1.2c0.3-0.5,0.4-1.1,0.4-1.8c0-0.7-0.1-1.3-0.4-1.8c-0.3-0.5-0.6-0.9-1.1-1.2c-0.5-0.3-1-0.4-1.6-0.4
					c-0.6,0-1.1,0.1-1.6,0.4c-0.5,0.3-0.8,0.7-1.1,1.2c-0.3,0.5-0.4,1.1-0.4,1.8c0,0.7,0.1,1.3,0.4,1.8c0.3,0.5,0.6,0.9,1.1,1.2
					c0.5,0.3,1,0.4,1.6,0.4C483.1,438.3,483.7,438.2,484.1,437.9z"/>
				<path class="st1" d="M494,429.9v10h-2v-10H494z"/>
				<path class="st1" d="M499.1,432.3c0.4-0.8,1.1-1.4,1.8-1.8c0.8-0.4,1.6-0.7,2.6-0.7c1.1,0,2.1,0.3,3,0.9
					c0.8,0.6,1.4,1.4,1.8,2.4h-2.3c-0.2-0.5-0.6-0.8-1-1.1c-0.4-0.2-0.9-0.4-1.4-0.4c-0.6,0-1.1,0.1-1.6,0.4
					c-0.5,0.3-0.8,0.7-1.1,1.2c-0.3,0.5-0.4,1.1-0.4,1.8c0,0.7,0.1,1.2,0.4,1.7c0.3,0.5,0.6,0.9,1.1,1.2c0.5,0.3,1,0.4,1.6,0.4
					c0.5,0,1-0.1,1.4-0.4c0.4-0.2,0.7-0.6,1-1.1h2.3c-0.3,1-0.9,1.8-1.8,2.4c-0.8,0.6-1.8,0.9-3,0.9c-1,0-1.8-0.2-2.6-0.7
					c-0.8-0.4-1.4-1-1.8-1.8c-0.4-0.8-0.7-1.7-0.7-2.6S498.6,433.1,499.1,432.3z"/>
				<path class="st1" d="M514.9,431.6v2.5h3.4v1.6h-3.4v2.7h3.8v1.6h-5.8v-10.1h5.8v1.6H514.9z"/>
			</g>
		</g>
	</g>
</g>
</svg>
